# xmcd
#
# Track frame offsets:
#	177
#	25677
#	41732
#	55845
#	79815
#	95825
#	114037
#	148935
#	185992
#	202442
#	236645
#	256430
#	273810
#	294947
#
# Disc length: 4193 seconds
#
# Revision: 0
# Processed by: cddbd v1.4PL0 Copyright (c) Steve Scherf et al.
# Submitted via: dBpowerAMP V4.0
#
DISCID=d3105f0e
DTITLE=Boogie Clowns - Live
DYEAR=1900
DGENRE=Blues
TTITLE0=White Room
TTITLE1=Maggie's Farm
TTITLE2=Howling Boogie
TTITLE3=Poor Boy
TTITLE4=Purple Haze
TTITLE5=Centre-Fold Dream
TTITLE6=Stranglehold
TTITLE7=A Blues For The Virgin
TTITLE8=The Sun was Shining
TTITLE9=Voodoo Chile
TTITLE10=Heartbreaker
TTITLE11=Rock and Roll
TTITLE12=War in the Country
TTITLE13=Summertime Blues
EXTD=
EXTT0=
EXTT1=
EXTT2=
EXTT3=
EXTT4=
EXTT5=
EXTT6=
EXTT7=
EXTT8=
EXTT9=
EXTT10=
EXTT11=
EXTT12=
EXTT13=
PLAYORDER=
